<svg width="552" height="285" viewBox="0 0 552 285" fill="none" xmlns="http://www.w3.org/2000/svg">
<mask id="mask0_180_1168" style="mask-type:alpha" maskUnits="userSpaceOnUse" x="0" y="0" width="552" height="285">
<rect width="552" height="285" fill="#D9D9D9"/>
</mask>
<g mask="url(#mask0_180_1168)">
<path d="M-137.62 -147.532C-137.62 -147.532 -120.507 -24.3911 -12.04 -9.86528C96.4267 4.66048 52.9878 30.307 172.458 46.3064C291.929 62.3058 302.796 124.544 378.252 134.648C453.707 144.753 402.432 240.859 508.541 255.069C614.65 269.279 565.492 353.512 619.208 360.705C702.523 371.863 675.605 351.811 730.624 359.179C784.34 366.373 858.061 411.285 858.061 411.285M-111.076 -208.335C-111.076 -208.335 -93.963 -85.1941 14.5038 -70.6683C122.971 -56.1426 79.5316 -30.4961 199.002 -14.4967C318.473 1.50272 329.34 63.7404 404.795 73.8453C480.251 83.9502 428.976 180.056 535.085 194.266C641.193 208.476 592.036 292.709 645.752 299.902C729.067 311.06 702.149 291.008 757.168 298.376C810.884 305.57 884.605 350.482 884.605 350.482" stroke="#EFEADF" stroke-width="11.67"/>
</g>
</svg>
