<svg width="542" height="514" viewBox="0 0 542 514" fill="none" xmlns="http://www.w3.org/2000/svg">
<path d="M-240.539 502.983C-240.539 502.983 -133.085 565.515 -54.7148 489.133C23.6551 412.751 17.0265 462.758 103.347 378.627C189.668 294.497 245.346 324.356 299.864 271.221C354.382 218.085 398.358 317.742 475.024 243.021C551.691 168.3 587.631 258.964 626.442 221.137C686.639 162.467 654.249 171.272 694.002 132.528C732.813 94.701 813.649 64.4116 813.649 64.4116M-272 444.572C-272 444.572 -164.546 507.104 -86.1759 430.722C-7.80593 354.34 -14.4345 404.348 71.886 320.217C158.206 236.086 213.885 265.945 268.403 212.81C322.921 159.675 366.897 259.332 443.563 184.61C520.23 109.889 556.17 200.553 594.981 162.726C655.178 104.056 622.788 112.861 662.541 74.1171C701.352 36.2904 782.188 6.0011 782.188 6.0011" stroke="#EFEADF" stroke-width="11.67"/>
</svg>
