<svg width="274" height="294" viewBox="0 0 274 294" fill="none" xmlns="http://www.w3.org/2000/svg">
<mask id="mask0_107_15571" style="mask-type:alpha" maskUnits="userSpaceOnUse" x="0" y="0" width="274" height="294">
<rect width="274" height="294" fill="#EFEADF"/>
</mask>
<g mask="url(#mask0_107_15571)">
<path opacity="0.23" d="M201.599 188.101C199.737 188.131 199.242 188.019 198.821 188.167C168.824 198.503 139.819 210.869 114.247 230.449C107.576 235.557 100.741 240.463 93.8654 245.315C74.1998 259.192 55.5543 274.316 37.7646 290.49C34.6684 293.305 31.8316 296.4 28.8725 299.366C29.2032 299.714 29.5329 300.062 29.8626 300.411C91.7321 270.896 150.731 236.933 201.599 188.101ZM154.68 133.168C152.181 133.931 151.049 134.213 149.958 134.619C130.77 141.751 112.891 151.324 96.1271 163.253C68.6833 182.782 41.8365 202.987 18.4419 227.333C12.0636 233.97 5.44125 240.496 0.591445 249.376C2.35025 248.853 3.29709 248.695 4.13917 248.301C18.0628 241.797 31.7062 234.655 44.4976 226.147C66.7127 211.37 87.8539 195.053 109.235 179.116C118.472 172.23 127.25 164.697 135.082 156.234C141.569 149.227 148.671 142.699 154.68 133.168ZM-46.9744 178.065C-43.7934 178.662 -41.8812 177.534 -39.9406 176.71C-16.9776 166.971 5.75593 156.419 26.6392 142.83C54.3736 124.78 81.4457 105.533 104.157 81.0549C114.924 69.4462 125.399 57.5947 132.979 43.6423C134.491 40.8556 136.566 38.0932 135.789 34.6638C132.443 34.2252 129.679 35.1895 126.953 35.9133C107.971 40.979 89.5084 47.3412 72.7479 58.1699C47.0692 74.7615 22.7936 93.088 1.31346 114.892C-13.0088 129.43 -26.5813 144.59 -38.0714 161.433C-41.5485 166.531 -44.8881 171.712 -46.9744 178.065ZM171.33 120.813C182.363 118.366 191.567 115.632 201.113 115.419C212.958 115.163 223.467 118.205 231.769 126.65C237.338 132.311 239.776 138.73 237.308 146.959C234.885 155.023 230.622 162.154 226.303 169.299C225.58 170.5 224.718 171.625 223.659 173.158C226.303 174.375 228.559 173.235 230.731 172.861C238.034 171.617 245.337 170.643 252.635 172.032C253.095 172.119 253.579 172.125 254.03 172.244C272.884 177.314 277.002 186.208 268.205 202.266C260.686 216.008 250.33 227.637 239.237 238.666C216.647 261.122 190.764 279.509 164.847 297.761C146.987 310.338 128.165 321.501 109.372 332.659C99.4714 338.536 90.0213 345.186 80.3156 351.404C76.4781 353.862 72.5232 356.134 68.5698 358.397C67.2387 359.159 65.7819 359.178 64.729 357.922C63.6735 356.664 63.8661 355.119 64.9532 354.09C68.5307 350.709 71.2773 346.679 76.6991 345.1C84.2815 342.892 90.444 337.436 97.1946 333.355C111.369 324.786 125.404 315.98 139.453 307.206C143.524 304.663 147.551 302.016 151.436 299.196C172.253 284.091 193.456 269.468 213.441 253.293C231.786 238.445 248.801 222.211 261.126 201.853C263.116 198.568 264.846 195.221 265.781 191.488C266.689 187.855 265.701 185.243 262.847 182.927C256.631 177.848 249.078 177.353 241.484 177.748C234.385 178.12 227.361 179.813 220.392 181.535C216.835 182.41 213.877 184.24 211.296 186.988C189.462 210.228 164.221 229.492 137.895 247.186C102.345 271.08 64.4036 290.773 25.7967 309.113C24.9328 309.524 24.0295 309.864 23.1203 310.155C20.5124 310.988 17.8205 311.58 16.1709 308.836C14.7041 306.398 16.3369 304.349 17.8999 302.499C26.1207 292.756 35.5411 284.19 45.1293 275.818C62.3259 260.803 80.0368 246.408 98.7883 233.353C116.717 220.871 134.53 208.139 154.514 199.048C170.023 191.994 185.763 185.526 202.049 180.638C208.551 178.683 213.439 175.045 217.797 169.916C222.855 163.961 226.567 157.34 229.571 150.364C233.91 140.29 232.201 134.369 223.555 127.891C217.617 123.44 210.773 121.341 203.177 121.508C191.444 121.759 180.119 124.732 168.888 128.173C165.729 129.14 163.649 131.355 161.787 133.957C146.885 154.792 128.435 172.09 108.052 187.676C96.2296 196.717 84.4271 205.808 72.4726 214.691C52.9169 229.222 31.8919 241.239 10.1864 252.102C7.41033 253.493 4.46694 254.583 1.52984 255.589C-1.10286 256.49 -3.73319 256.374 -5.61786 254.171C-7.59151 251.865 -6.83388 249.312 -5.32652 247.006C-3.10632 243.611 -0.861647 240.199 1.68874 237.039C13.1661 222.811 26.6398 210.519 40.3071 198.401C56.53 184.016 74.5614 172.012 91.7833 158.948C109.993 145.134 130.089 135.045 151.51 127.825C159.726 125.052 165.005 120.369 168.827 112.974C174.288 102.401 180.557 92.1876 183.316 80.5209C183.913 77.9973 184.538 75.5113 184.892 72.9253C187.261 55.3343 177.481 44.5559 164.433 35.7925C159.911 32.7553 154.366 32.2486 148.808 32.5125C145.87 32.6535 143.838 33.9863 142.825 36.8007C135.885 56.1159 122.019 70.8285 108.35 85.6506C85.6711 110.241 58.2681 129.104 30.6503 147.38C9.84104 161.152 -13.0418 171.473 -35.86 181.584C-38.2662 182.649 -40.7732 183.495 -43.2745 184.305C-46.3684 185.307 -49.5226 185.631 -51.8307 183.044C-54.1236 180.476 -53.4137 177.397 -52.1932 174.436C-50.01 169.14 -47.1554 164.152 -43.8904 159.435C-26.4996 134.317 -5.77729 112.126 17.1953 91.8312C32.3767 78.4183 49.0107 67.0107 65.4815 55.358C76.9449 47.2482 89.8308 41.8927 102.863 37.053C112.739 33.3864 122.853 30.497 133.176 28.3887C139.56 27.0863 140.525 24.2073 136.66 19.1334C133.267 14.6823 128.469 12.4871 123.002 11.4548C116.396 10.1991 109.732 10.8266 103.265 12.6258C75.4564 20.3756 48.8589 30.9297 25.3816 48.5635C10.7758 59.5357 -4.20898 70.0133 -18.5245 81.3366C-34.3428 93.8485 -49.747 106.892 -64.2782 120.901C-66.7537 123.289 -68.8383 125.623 -68.5503 129.417C-68.3205 132.46 -70.4689 134.613 -72.8642 136.427C-78.0597 140.361 -83.799 143.401 -89.4072 146.648C-92.1371 148.228 -95.0796 148.536 -97.0218 145.804C-98.746 143.38 -97.6868 140.815 -95.6765 138.796C-93.1374 136.247 -90.579 133.666 -87.7408 131.473C-77.8306 123.815 -69.0719 114.892 -59.6849 106.663C-42.5265 91.6188 -25.2652 76.7153 -6.82427 63.217C1.51446 57.1142 9.96725 51.1446 18.1751 44.8859C42.6928 26.1904 70.5311 14.8932 99.6821 6.53857C107.564 4.27947 115.617 3.42664 123.632 5.00481C134.45 7.11534 142.881 12.1035 145.61 23.4322C146.37 26.5896 148.686 26.5476 151.024 26.5136C161.348 26.369 169.75 30.5288 176.823 37.2499C182.707 42.869 187.464 49.429 190.097 57.2431C192.623 64.7744 191.385 72.5386 189.461 80.11C187.26 88.7929 184.669 97.3937 179.775 105.243C176.892 109.859 174.569 114.788 171.33 120.813Z" fill="#1C3433"/>
</g>
</svg>
