<svg width="40" height="40" viewBox="0 0 40 40" fill="none" xmlns="http://www.w3.org/2000/svg">
<path d="M1.66666 33.3333V31.6667C1.66666 25.2233 6.89 20 13.3333 20V20C19.7766 20 25 25.2233 25 31.6667V33.3333" stroke="#1C3433" stroke-width="2.5" stroke-linecap="round"/>
<path d="M21.6667 23.3333V23.3333C21.6667 18.731 25.3976 15 30 15V15C34.6024 15 38.3333 18.731 38.3333 23.3333V24.1667" stroke="#1C3433" stroke-width="2.5" stroke-linecap="round"/>
<path d="M13.3333 20C17.0152 20 20 17.0152 20 13.3333C20 9.65142 17.0152 6.66666 13.3333 6.66666C9.65142 6.66666 6.66666 9.65142 6.66666 13.3333C6.66666 17.0152 9.65142 20 13.3333 20Z" stroke="#1C3433" stroke-width="2.5" stroke-linecap="round" stroke-linejoin="round"/>
<path d="M30 15C32.7614 15 35 12.7614 35 10C35 7.23858 32.7614 5 30 5C27.2386 5 25 7.23858 25 10C25 12.7614 27.2386 15 30 15Z" stroke="#1C3433" stroke-width="2.5" stroke-linecap="round" stroke-linejoin="round"/>
</svg>
