<svg width="193" height="36" viewBox="0 0 193 36" fill="none" xmlns="http://www.w3.org/2000/svg">
<g clip-path="url(#clip0_325_481)">
<path d="M108.323 26.1381H112.452V10.5665H108.323V26.1381ZM108.323 8.13823H112.452V4.43506H108.323V8.13823Z" fill="#1C3433"/>
<path d="M115.112 31.2376H119.24V24.3776H119.301C120.181 25.7132 121.608 26.5934 123.793 26.5934C127.8 26.5934 130.532 23.4063 130.532 18.3676C130.532 13.5109 127.891 10.1416 123.763 10.1416C121.638 10.1416 120.181 11.1433 119.179 12.5092H119.088V10.5666H115.112V31.2376ZM122.913 23.1634C120.454 23.1634 119.149 21.3119 119.149 18.4889C119.149 15.6964 120.181 13.4806 122.761 13.4806C125.311 13.4806 126.342 15.5446 126.342 18.4889C126.342 21.4333 125.007 23.1634 122.913 23.1634Z" fill="#1C3433"/>
<path d="M138.766 26.5934C142.652 26.5934 145.323 24.7115 145.323 21.585C145.323 17.9426 142.439 17.2141 139.828 16.6677C137.613 16.2124 135.549 16.091 135.549 14.7555C135.549 13.6323 136.611 13.0253 138.22 13.0253C139.981 13.0253 141.043 13.6323 141.225 15.3018H144.958C144.655 12.1754 142.378 10.1416 138.281 10.1416C134.729 10.1416 131.937 11.7504 131.937 15.1197C131.937 18.5193 134.669 19.2781 137.461 19.8245C139.586 20.2495 141.558 20.4012 141.558 21.8886C141.558 22.9813 140.527 23.6795 138.706 23.6795C136.854 23.6795 135.579 22.8902 135.306 21.0994H131.482C131.724 24.4079 134.244 26.5934 138.766 26.5934Z" fill="#1C3433"/>
<path d="M160.996 26.138V10.5664H156.867V19.5512C156.867 21.6152 155.684 23.0722 153.741 23.0722C151.98 23.0722 151.162 22.0705 151.162 20.2493V10.5664H147.063V20.9474C147.063 24.347 149.006 26.5629 152.466 26.5629C154.652 26.5629 155.866 25.7434 156.928 24.3168H157.02V26.138H160.996Z" fill="#1C3433"/>
<path d="M163.666 26.1381H167.794V17.0927C167.794 15.0286 168.918 13.6931 170.587 13.6931C172.105 13.6931 172.985 14.6036 172.985 16.3642V26.1381H177.113V17.0927C177.113 15.0286 178.175 13.6931 179.905 13.6931C181.424 13.6931 182.304 14.6036 182.304 16.3642V26.1381H186.432V15.666C186.432 12.2664 184.58 10.1416 181.301 10.1416C179.329 10.1416 177.689 11.1736 176.627 12.8734H176.567C175.808 11.2344 174.229 10.1416 172.256 10.1416C170.101 10.1416 168.584 11.2344 167.734 12.661H167.643V10.5666H163.666V26.1381Z" fill="#1C3433"/>
<path d="M0.729736 26.1381H4.85786V4.43506H0.729736V26.1381Z" fill="#1C3433"/>
<path d="M14.9517 26.5934C19.7779 26.5934 23.0864 23.0117 23.0864 18.3676C23.0864 13.7233 19.7779 10.1416 14.9517 10.1416C10.1253 10.1416 6.81677 13.7233 6.81677 18.3676C6.81677 23.0117 10.1253 26.5934 14.9517 26.5934ZM14.9517 23.4366C12.4019 23.4366 11.0056 21.4029 11.0056 18.3676C11.0056 15.3322 12.4019 13.2681 14.9517 13.2681C17.471 13.2681 18.8976 15.3322 18.8976 18.3676C18.8976 21.4029 17.471 23.4366 14.9517 23.4366Z" fill="#1C3433"/>
<path d="M31.8654 31.45C34.1723 31.45 36.1757 30.9037 37.4808 29.6895C38.6343 28.6271 39.3325 27.1398 39.3325 24.9544V10.5666H35.3561V12.2057H35.2954C34.3544 10.9005 32.9278 10.1416 30.9851 10.1416C27.0391 10.1416 24.2466 13.1163 24.2466 17.7604C24.2466 22.4653 27.6462 25.1971 31.1066 25.1971C33.0795 25.1971 34.2634 24.4079 35.1739 23.3759H35.265V25.0757C35.265 27.2005 34.1419 28.3236 31.8047 28.3236C29.8924 28.3236 29.0121 27.5647 28.6782 26.5934H24.5804C25.0054 29.6288 27.6158 31.45 31.8654 31.45ZM31.8047 21.8886C29.6799 21.8886 28.2836 20.3405 28.2836 17.6998C28.2836 15.0893 29.6799 13.4502 31.7743 13.4502C34.2634 13.4502 35.4775 15.3929 35.4775 17.6694C35.4775 19.9763 34.4151 21.8886 31.8047 21.8886Z" fill="#1C3433"/>
<path d="M49.3664 26.5934C54.1927 26.5934 57.5013 23.0117 57.5013 18.3676C57.5013 13.7233 54.1927 10.1416 49.3664 10.1416C44.5402 10.1416 41.2316 13.7233 41.2316 18.3676C41.2316 23.0117 44.5402 26.5934 49.3664 26.5934ZM49.3664 23.4366C46.8167 23.4366 45.4205 21.4029 45.4205 18.3676C45.4205 15.3322 46.8167 13.2681 49.3664 13.2681C51.8858 13.2681 53.3125 15.3322 53.3125 18.3676C53.3125 21.4029 51.8858 23.4366 49.3664 23.4366Z" fill="#1C3433"/>
<path d="M187.932 8.01035C187.932 7.31185 188.498 6.74561 189.197 6.74561H191.726C192.425 6.74561 192.991 7.31185 192.991 8.01035C192.991 8.70885 192.425 9.2751 191.726 9.2751H189.197C188.498 9.2751 187.932 8.70885 187.932 8.01035Z" fill="#1C3433"/>
<path fill-rule="evenodd" clip-rule="evenodd" d="M82.5364 0C92.315 0 100.243 7.92744 100.243 17.7064C100.243 27.4854 92.315 35.4128 82.5364 35.4128C72.7574 35.4128 64.83 27.4854 64.83 17.7064C64.83 7.92744 72.7574 0 82.5364 0ZM81.8964 1.32496C79.8763 1.60924 77.9529 3.23238 76.4598 5.94706C76.0267 6.73449 75.6359 7.60443 75.2954 8.54374C77.3256 8.03355 79.5559 7.73277 81.8964 7.68624V1.32496ZM73.7989 8.96901C74.2224 7.63995 74.7404 6.41716 75.3383 5.33021C76.0784 3.98447 76.9568 2.82236 77.9465 1.9298C72.5647 3.4928 68.3227 7.73486 66.7597 13.1167C67.6523 12.127 68.8143 11.2485 70.1601 10.5084C71.2471 9.91055 72.4698 9.39246 73.7989 8.96901ZM73.3737 10.4655C72.8634 12.4957 72.5627 14.7259 72.5161 17.0664H66.1548C66.4391 15.0464 68.0623 13.1229 70.777 11.6299C71.5644 11.1968 72.4343 10.8061 73.3737 10.4655ZM73.7964 17.0664C73.8493 14.5122 74.217 12.1142 74.8254 9.99545C76.9442 9.38706 79.3421 9.0193 81.8964 8.96644V11.7312C80.9435 14.1706 79.0001 16.1139 76.5605 17.0664H73.7964ZM72.5161 18.3464H66.1548C66.4391 20.3665 68.0623 22.2898 70.777 23.7829C71.5644 24.216 72.4343 24.6068 73.3737 24.9474C72.8634 22.9172 72.5627 20.6869 72.5161 18.3464ZM74.8254 25.4174C74.217 23.2986 73.8493 20.9007 73.7964 18.3464H76.5605C79.0001 19.2989 80.9435 21.2422 81.8964 23.6816V26.4464C79.3421 26.3935 76.9442 26.0258 74.8254 25.4174ZM73.7989 26.4438C72.4698 26.0204 71.2471 25.5023 70.1601 24.9044C68.8143 24.1643 67.6523 23.2859 66.7597 22.2962C68.3227 27.678 72.5647 31.9201 77.9465 33.483C76.9568 32.5904 76.0784 31.4284 75.3383 30.0826C74.7404 28.9957 74.2224 27.7729 73.7989 26.4438ZM81.8964 34.0879C79.8763 33.8036 77.9529 32.1804 76.4598 29.4658C76.0267 28.6784 75.6359 27.8084 75.2954 26.8691C77.3256 27.3793 79.5559 27.6801 81.8964 27.7266V34.0879ZM87.1262 33.483C88.1159 32.5904 88.9942 31.4284 89.7343 30.0826C90.3319 28.9957 90.8507 27.7729 91.2739 26.4438C92.6027 26.0204 93.8254 25.5023 94.9125 24.9044C96.2582 24.1643 97.4207 23.2859 98.3131 22.2962C96.7496 27.678 92.508 31.9201 87.1262 33.483ZM89.7777 26.8691C89.4368 27.8084 89.0455 28.6784 88.6126 29.4658C87.1198 32.1804 85.1963 33.8036 83.1763 34.0879V27.7266C85.5168 27.6801 87.747 27.3793 89.7777 26.8691ZM91.6988 24.9474C92.6382 24.6068 93.5084 24.216 94.2955 23.7829C97.0108 22.2899 98.6336 20.3665 98.9177 18.3464H92.5567C92.5098 20.6869 92.2088 22.9172 91.6988 24.9474ZM91.2765 18.3464C91.2234 20.9007 90.856 23.2986 90.2469 25.4174C88.1285 26.0258 85.7305 26.3935 83.1763 26.4464V23.6837C84.1289 21.2434 86.0728 19.2992 88.5129 18.3464H91.2765ZM92.5567 17.0664H98.9177C98.6336 15.0464 97.0108 13.1229 94.2955 11.6299C93.5084 11.1968 92.6382 10.8061 91.6988 10.4655C92.2088 12.4957 92.5098 14.7259 92.5567 17.0664ZM90.2469 9.99545C90.856 12.1142 91.2234 14.5122 91.2765 17.0664H88.513C86.0728 16.1136 84.1289 14.1695 83.1763 11.7292V8.96644C85.7305 9.0193 88.1285 9.38706 90.2469 9.99545ZM91.2739 8.96901C92.6027 9.39246 93.8254 9.91055 94.9125 10.5084C96.2582 11.2485 97.4207 12.127 98.3131 13.1167C96.7496 7.73486 92.508 3.4928 87.1262 1.9298C88.1159 2.82236 88.9942 3.98447 89.7343 5.33021C90.3319 6.41716 90.8507 7.63995 91.2739 8.96901ZM83.1763 1.32496C85.1963 1.60924 87.1198 3.23238 88.6126 5.94706C89.0455 6.7345 89.4368 7.60443 89.7777 8.54374C87.747 8.03355 85.5168 7.73277 83.1763 7.68624V1.32496Z" fill="#1C3433"/>
</g>
<defs>
<clipPath id="clip0_325_481">
<rect width="193" height="35.4128" fill="white"/>
</clipPath>
</defs>
</svg>
