<svg width="207" height="26" viewBox="0 0 207 26" fill="none" xmlns="http://www.w3.org/2000/svg">
<path d="M103.082 22.2984H96.1093V3.65752H103.082V22.2984ZM96.7902 21.6175H102.401V4.33844H96.7902V21.6175ZM112.784 22.2984H105.951V3.65752H120.226C122.271 3.49192 124.308 4.06603 125.965 5.27539C126.678 5.92813 127.231 6.7369 127.581 7.63858C127.93 8.54027 128.067 9.51049 127.979 10.4735C128.081 12.1377 127.551 13.779 126.496 15.0698C125.247 16.5024 123.169 17.2405 120.32 17.2664C119.602 17.2855 114.225 17.2664 112.788 17.2664L112.784 22.2984ZM106.628 21.6175H112.103V16.5787H112.445C112.514 16.5787 119.496 16.6005 120.304 16.5787C122.958 16.5555 124.866 15.8978 125.981 14.6135C126.921 13.4457 127.387 11.9677 127.289 10.4722C127.372 9.60927 127.256 8.73868 126.949 7.9279C126.642 7.11713 126.153 6.38797 125.518 5.79697C123.982 4.69402 122.101 4.17629 120.217 4.33708H106.632L106.628 21.6175ZM118.78 13.0787H112.056V8.00452H118.825C119.305 7.93822 119.793 7.99422 120.246 8.1673C120.698 8.34039 121.099 8.62495 121.412 8.99458C121.696 9.46706 121.83 10.0146 121.796 10.5648C121.822 11.0756 121.712 11.5841 121.476 12.0383C121.153 12.4276 120.736 12.7273 120.263 12.9086C119.791 13.0898 119.28 13.1466 118.78 13.0733V13.0787ZM112.737 12.3978H118.78C119.897 12.3978 120.588 12.1649 120.895 11.6856C121.064 11.3372 121.14 10.9512 121.117 10.5648C121.147 10.159 121.059 9.75332 120.864 9.39632L120.855 9.38407C120.531 8.90742 119.887 8.68544 118.825 8.68544H112.737V12.3978ZM140.406 22.5735C134.291 22.5735 130.642 21.0551 129.251 17.9323C129.024 17.3292 128.869 16.701 128.791 16.0612L128.731 15.669H136.006L136.053 15.955C136.109 16.2453 136.233 16.5186 136.413 16.753C136.7 17.1003 137.659 17.6831 140.84 17.6831C144.664 17.6831 144.664 17.0117 144.664 16.6509C144.664 16.0421 144.222 15.8338 141.103 15.5015L140.511 15.4456C139.337 15.3353 137.852 15.195 137.174 15.1365C131.455 14.619 128.901 12.8418 128.901 9.3759C128.901 5.73569 133.247 3.38379 139.973 3.38379C145.46 3.38379 148.995 4.83007 150.478 7.68585C150.829 8.35013 151.066 9.06947 151.177 9.81305L151.224 10.1957H143.941L143.911 9.88795C143.883 9.64742 143.781 9.42178 143.617 9.24243C143.345 8.87746 142.484 8.27416 139.812 8.27416C136.531 8.27416 136.079 8.69361 136.079 9.14574C136.079 9.74904 137.116 9.96285 140.437 10.3183C141.822 10.4313 144.049 10.6601 144.811 10.7527C149.607 11.2729 151.746 13.0066 151.746 16.3758C151.747 19.2016 149.779 22.5735 140.406 22.5735ZM129.526 16.3499C129.594 16.799 129.712 17.2392 129.876 17.6627C131.143 20.5076 134.588 21.8926 140.406 21.8926C145.27 21.8926 151.071 20.9393 151.071 16.3758C151.071 13.3892 149.178 11.9103 144.739 11.4296C143.977 11.3369 141.764 11.1095 140.381 10.9951C136.841 10.6111 135.401 10.4068 135.401 9.14574C135.401 7.8411 136.952 7.59324 139.815 7.59324C142.077 7.59324 143.538 8.0018 144.158 8.82571C144.327 9.02869 144.455 9.26279 144.534 9.5148H150.436C150.317 8.98811 150.129 8.47938 149.878 8.0018C148.516 5.38842 145.189 4.06471 139.976 4.06471C133.663 4.06471 129.585 6.14969 129.585 9.3759C129.585 12.4537 131.874 13.9735 137.237 14.4583C137.918 14.5168 139.401 14.6571 140.578 14.7688L141.174 14.8246C144.071 15.1297 145.348 15.3203 145.348 16.6509C145.348 18.0835 143.696 18.3641 140.843 18.3641C138.204 18.3641 136.537 17.9678 135.893 17.1874C135.694 16.9386 135.544 16.6544 135.452 16.3499H129.526ZM164.683 22.5504C157.575 22.5504 153.653 19.6755 153.653 14.4542V3.65752H160.533V14.4542C160.533 16.245 162.135 17.2719 164.929 17.2719C167.598 17.2719 169.255 16.2001 169.255 14.4774V3.65752H176.064V15.0262C176.071 19.8076 171.919 22.5504 164.679 22.5504H164.683ZM154.333 4.33844V14.4542C154.333 20.9066 160.813 21.8694 164.683 21.8694C168.685 21.8694 175.394 20.9802 175.394 15.0262V4.33844H169.947V14.4774C169.947 16.5882 167.981 17.9528 164.94 17.9528C161.761 17.9528 159.863 16.6454 159.863 14.4542V4.33844H154.333ZM204.919 22.2984H198.426V13.8822L194.743 22.2984H189.08L185.435 13.8986V22.2984H178.919V3.65752H187.49L191.943 13.9353L196.612 3.65752H204.927L204.919 22.2984ZM199.107 21.6175H204.238V4.33844H197.045L191.922 15.6131L187.038 4.33844H179.594V21.6175H184.749V10.622L189.515 21.6216H194.282L199.099 10.6383L199.107 21.6175ZM8.24461 3.99798H2.04279V21.958H19.1802V17.1765H8.24461V3.99798ZM31.6983 3.58943C23.7819 3.58943 19.6187 7.3413 19.6187 12.85C19.6187 19.0736 23.9889 22.2303 31.6983 22.2303C40.1853 22.2303 43.7546 18.5697 43.7546 12.85C43.7546 7.0417 39.7277 3.5867 31.6983 3.5867V3.58943ZM31.6751 8.25646C32.214 8.25393 32.7526 8.2853 33.2875 8.35043L26.3544 15.2836C26.0263 14.5415 25.8663 13.736 25.8859 12.9249C25.8859 10.1072 27.305 8.25374 31.6751 8.25374V8.25646ZM31.6983 17.6368C31.179 17.6391 30.6601 17.61 30.1444 17.5497L37.0898 10.6043C37.4056 11.3341 37.5568 12.1245 37.5324 12.9194C37.5324 15.6608 36.225 17.6341 31.6983 17.6341V17.6368ZM56.0425 15.1855H62.4255C62.3315 15.6285 62.1357 16.0435 61.8535 16.3976C60.5302 17.4756 58.8414 18.0002 57.1402 17.8615C56.2839 17.9532 55.418 17.8596 54.601 17.5873C53.7841 17.315 53.0351 16.8702 52.4051 16.2832C51.7597 15.3365 51.4531 14.1997 51.5348 13.057C51.4304 11.8595 51.7638 10.6649 52.4732 9.69457C53.3652 8.6868 54.8754 8.25237 57.0952 8.25237C58.5076 8.13543 59.9182 8.49816 61.0991 9.28193C61.4713 9.57756 61.7495 9.97498 61.8998 10.4259H67.8198C67.7767 9.68295 67.598 8.95417 67.2927 8.27553C65.875 5.39251 62.5794 3.67659 56.9754 3.67659C52.1014 3.67659 48.8302 5.16372 47.0231 7.40667C45.8295 9.02639 45.2169 11.0012 45.284 13.012C45.2068 15.0684 45.8037 17.0936 46.9836 18.7794C48.7689 21.0945 51.9488 22.233 55.7702 22.233C58.3107 22.4102 60.8339 21.6987 62.9076 20.2202L63.0683 21.958H67.9859V11.3192H56.0425V15.1855ZM81.9434 3.58534C74.0284 3.58534 69.8639 7.33722 69.8639 12.8459C69.8639 19.0695 74.2327 22.2262 81.9434 22.2262C90.4318 22.2262 94.0012 18.5656 94.0012 12.8459C94.0012 7.0417 89.9742 3.5867 81.9434 3.5867V3.58534ZM81.9216 8.25237C82.4463 8.25082 82.9707 8.28084 83.4918 8.34226L76.5859 15.2522C76.2681 14.5183 76.1134 13.7244 76.1324 12.9249C76.127 10.1072 77.5515 8.25237 81.9216 8.25237ZM81.9434 17.6327C81.4104 17.6351 80.8778 17.604 80.3487 17.5401L87.3172 10.5702C87.645 11.3098 87.8019 12.1136 87.7762 12.9221C87.7789 15.6608 86.477 17.6341 81.9434 17.6341V17.6327Z" fill="#1C3433"/>
</svg>
